HIERARCHY
ROOT Hips
{
	OFFSET 0.000000 0.000000 0.000000
	CHANNELS 6 Xposition Yposition Zposition Xrotation Yrotation Zrotation
	JOINT LeftUpLeg_virtual
	{
		OFFSET 0.000000 0.000000 0.000000
		CHANNELS 3 Xrotation Yrotation Zrotation
		JOINT LeftUpLeg
		{
			OFFSET 10.205400 -3.823500 0.155100
			CHANNELS 3 Xrotation Yrotation Zrotation
			JOINT LeftLeg
			{
				OFFSET 0.708757 -12.982077 0.567790
				CHANNELS 3 Xrotation Yrotation Zrotation
				JOINT LeftFoot
				{
					OFFSET -0.708756 -10.717838 -2.184338
					CHANNELS 3 Xrotation Yrotation Zrotation
					JOINT LeftToeBase
					{
						OFFSET 0.108149 -7.191104 7.560241
						CHANNELS 3 Xrotation Yrotation Zrotation
						JOINT LeftToe_End
						{
							OFFSET 0.070230 0.081724 4.490308
							CHANNELS 3 Xrotation Yrotation Zrotation
							End Site
							{
								OFFSET 0 0 0
							}
						}
					}
				}
			}
		}
	}
	JOINT RightUpLeg_virtual
	{
		OFFSET 0.000000 0.000000 0.000000
		CHANNELS 3 Xrotation Yrotation Zrotation
		JOINT RightUpLeg
		{
			OFFSET -10.205400 -3.823500 0.005500
			CHANNELS 3 Xrotation Yrotation Zrotation
			JOINT RightLeg
			{
				OFFSET -0.708756 -12.982134 0.610632
				CHANNELS 3 Xrotation Yrotation Zrotation
				JOINT RightFoot
				{
					OFFSET 0.708754 -10.717769 -1.945823
					CHANNELS 3 Xrotation Yrotation Zrotation
					JOINT RightToeBase
					{
						OFFSET -0.108140 -7.191069 7.372968
						CHANNELS 3 Xrotation Yrotation Zrotation
						JOINT RightToe_End
						{
							OFFSET -0.070227 0.081735 4.479403
							CHANNELS 3 Xrotation Yrotation Zrotation
							End Site
							{
								OFFSET 0 0 0
							}
						}
					}
				}
			}
		}
	}
	JOINT Spine_virtual
	{
		OFFSET 0.000000 0.000000 0.000000
		CHANNELS 3 Xrotation Yrotation Zrotation
		JOINT Spine
		{
			OFFSET 0.000000 6.876099 0.125700
			CHANNELS 3 Xrotation Yrotation Zrotation
			JOINT Spine1
			{
				OFFSET 0.000000 5.730043 0.104720
				CHANNELS 3 Xrotation Yrotation Zrotation
				JOINT Spine1_split
				{
					OFFSET 0.000000 5.730043 0.104720
					CHANNELS 3 Xrotation Yrotation Zrotation
					JOINT Spine2
					{
						OFFSET 0.000000 5.730043 0.104720
						CHANNELS 3 Xrotation Yrotation Zrotation
						JOINT Neck_virtual
						{
							OFFSET 0.000000 0.000000 0.000000
							CHANNELS 3 Xrotation Yrotation Zrotation
							JOINT Neck
							{
								OFFSET 0.000000 10.314075 0.188496
								CHANNELS 3 Xrotation Yrotation Zrotation
								JOINT Head
								{
									OFFSET 0.000000 7.643700 -2.377400
									CHANNELS 3 Xrotation Yrotation Zrotation
									JOINT HeadTop_End
									{
										OFFSET 0.000000 43.788605 -13.619600
										CHANNELS 3 Xrotation Yrotation Zrotation
										End Site
										{
											OFFSET 0 0 0
										}
									}
								}
							}
						}
						JOINT LeftShoulder_virtual
						{
							OFFSET 0.000000 0.000000 0.000000
							CHANNELS 3 Xrotation Yrotation Zrotation
							JOINT LeftShoulder
							{
								OFFSET 2.196100 4.412489 0.087492
								CHANNELS 3 Xrotation Yrotation Zrotation
								JOINT LeftShoulder_split
								{
									OFFSET 2.196100 4.412489 0.087492
									CHANNELS 3 Xrotation Yrotation Zrotation
									JOINT LeftArm
									{
										OFFSET 8.771219 -2.981674 -0.026999
										CHANNELS 3 Xrotation Yrotation Zrotation
										JOINT LeftForeArm
										{
											OFFSET 8.512804 0.000000 -0.000000
											CHANNELS 3 Xrotation Yrotation Zrotation
											JOINT LeftHand
											{
												OFFSET 18.484802 0.000000 -0.000000
												CHANNELS 3 Xrotation Yrotation Zrotation
												End Site
												{
													OFFSET 0 0 0
												}
											}
										}
									}
								}
							}
						}
						JOINT RightShoulder_virtual
						{
							OFFSET 0.000000 0.000000 0.000000
							CHANNELS 3 Xrotation Yrotation Zrotation
							JOINT RightShoulder
							{
								OFFSET -2.196100 4.412496 0.070690
								CHANNELS 3 Xrotation Yrotation Zrotation
								JOINT RightShoulder_split
								{
									OFFSET -2.196100 4.412496 0.070690
									CHANNELS 3 Xrotation Yrotation Zrotation
									JOINT RightArm
									{
										OFFSET -8.771282 -2.981682 -0.094208
										CHANNELS 3 Xrotation Yrotation Zrotation
										JOINT RightForeArm
										{
											OFFSET -8.494598 0.000000 0.000000
											CHANNELS 3 Xrotation Yrotation Zrotation
											JOINT RightHand
											{
												OFFSET -18.483803 0.000000 0.000001
												CHANNELS 3 Xrotation Yrotation Zrotation
												End Site
												{
													OFFSET 0 0 0
												}
											}
										}
									}
								}
							}
						}
					}
				}
			}
		}
	}
}
MOTION
Frames: 8
Frame Time: 0.03333333
-7.712311 33.176254 -2.751871 0.000000 0.000000 0.000000 -173.991488 -51.134293 -170.301765 -104.493322 -30.280465 6.087181 91.549219 -19.669297 -46.345689 53.152655 -16.334857 -28.389785 -5.785973 -0.661732 0.397937 0.000000 0.000000 0.000000 -174.412842 -47.956302 -171.310761 -3.431159 33.156149 -2.916551 35.825500 14.839797 -3.048370 -23.398903 13.577280 5.060958 -2.488204 2.144821 3.859007 0.000000 0.000000 0.000000 -171.740599 -50.800242 -166.947773 18.798945 4.116304 1.735268 6.969646 0.011121 0.088974 0.831147 -1.997908 0.778217 0.000000 0.000000 0.000000 10.509849 0.202274 -0.561072 4.339127 38.637810 5.907602 8.897302 47.907480 -31.348792 0.000000 0.000000 0.000000 9.663513 -0.153645 -0.400576 -2.176665 -12.729214 11.634984 3.081060 -0.094836 -1.633810 -54.750264 -49.402144 -41.979456 -97.356000 -25.978744 -91.743825 0.000000 0.000000 0.000000 7.959042 -0.439559 -0.643470 -3.810704 19.989488 3.919171 3.595933 -2.395559 4.161586 -54.871175 13.913585 26.522729 128.623281 41.324950 -123.997522 0.000000 0.000000 0.000000 
-8.113891 33.497276 -2.881935 0.000000 0.000000 0.000000 -172.795781 -48.296063 -167.915297 -110.067474 -26.901410 7.367296 90.238424 -23.297140 -46.172287 47.701928 -20.161650 -34.839432 -11.506580 -1.113034 2.305728 0.000000 0.000000 0.000000 -173.509809 -43.787909 -169.172653 -0.374604 35.027806 -5.431895 35.355351 15.469569 -2.528021 -23.427692 14.614194 5.336678 -4.136647 2.155558 4.069360 0.000000 0.000000 0.000000 -171.681845 -47.715896 -166.323699 19.472330 4.758114 1.466392 7.545806 0.270997 -0.286084 0.572716 -2.013151 0.911248 0.000000 0.000000 0.000000 11.146012 0.406364 -1.059909 5.806328 39.049899 5.096918 8.079037 48.916531 -31.702507 0.000000 0.000000 0.000000 10.360504 0.064769 -0.764436 -1.683620 -12.404918 16.124526 2.982635 -0.538350 -1.662384 -66.384145 -46.127177 -47.698650 -96.649444 -27.697488 -91.267774 0.000000 0.000000 0.000000 8.526887 -0.277868 -1.069069 -2.777249 20.660347 -0.181131 3.596204 -2.815127 4.236411 -61.665516 12.730844 25.630778 130.357644 41.011891 -126.488683 0.000000 0.000000 0.000000 
-8.444448 33.769295 -2.987745 0.000000 0.000000 0.000000 -171.727307 -45.999002 -165.444558 -115.670305 -24.778232 8.603667 90.634213 -27.965890 -45.200382 45.116357 -24.543936 -40.406443 -15.864742 -1.780257 4.287934 0.000000 0.000000 0.000000 -172.827200 -40.657971 -167.203277 2.422285 36.547352 -8.481330 35.695248 15.966870 -1.838744 -23.035313 15.266822 6.063475 -6.661368 2.043354 4.194151 0.000000 0.000000 0.000000 -171.523549 -45.307076 -165.425884 20.076033 5.216522 1.304403 7.989549 0.435594 -0.662967 0.509799 -2.144930 1.073369 0.000000 0.000000 0.000000 11.635012 0.502629 -1.539186 7.307298 39.363541 4.067723 7.473251 49.755541 -32.156988 0.000000 0.000000 0.000000 10.940369 0.179059 -1.137707 -1.270606 -12.161477 20.444786 3.159190 -0.872559 -1.744511 -75.216721 -42.137664 -51.853447 -95.894579 -29.323153 -90.582747 0.000000 0.000000 0.000000 8.948947 -0.204736 -1.467821 -1.708135 21.185722 -4.343755 3.624129 -3.269998 4.140179 -67.485807 11.025811 23.697731 132.031750 41.112227 -128.760568 0.000000 0.000000 0.000000 
-8.688129 33.919407 -3.095839 0.000000 0.000000 0.000000 -170.791435 -44.443512 -163.182590 -119.918451 -23.389580 9.465227 91.730076 -31.053708 -44.859443 44.118026 -26.333513 -43.367262 -17.452774 -2.190071 5.333802 0.000000 0.000000 0.000000 -172.324348 -38.572018 -165.463819 4.704335 37.663637 -11.659810 36.778769 16.332628 -0.966049 -22.754181 15.479601 7.069145 -9.021447 1.869686 4.281207 0.000000 0.000000 0.000000 -171.143476 -43.656308 -164.092959 20.583446 5.490631 1.204258 8.291381 0.473498 -0.985187 0.457766 -2.474192 1.092635 0.000000 0.000000 0.000000 11.996411 0.486795 -1.941573 8.784795 39.574635 2.892644 6.976359 50.413005 -32.600821 0.000000 0.000000 0.000000 11.358280 0.186551 -1.450158 -0.908246 -12.119873 24.488277 3.539595 -1.157273 -1.865773 -81.507851 -38.271172 -54.385528 -95.364337 -30.868705 -90.068557 0.000000 0.000000 0.000000 9.183113 -0.214919 -1.791672 -0.676988 21.583888 -8.210849 3.685710 -3.564997 4.112450 -72.347522 8.784548 20.886442 133.921800 41.392480 -131.063885 0.000000 0.000000 0.000000 
-8.878675 33.948204 -3.164955 0.000000 0.000000 0.000000 -170.122281 -43.333923 -161.273197 -121.660081 -22.492622 10.066994 91.849078 -31.561536 -45.908235 42.086724 -24.732439 -44.881699 -18.037585 -2.305977 5.703549 0.000000 0.000000 0.000000 -171.970435 -37.556157 -163.964305 6.137176 38.490882 -14.497529 38.443990 16.536636 -0.043510 -23.225133 15.223773 7.790351 -9.709442 1.779130 4.438376 0.000000 0.000000 0.000000 -170.499348 -42.626374 -162.312001 21.022494 5.549974 1.112429 8.417682 0.369344 -1.239539 0.424012 -2.794352 1.154550 0.000000 0.000000 0.000000 12.248467 0.383685 -2.234014 10.218163 39.710682 1.694480 6.536979 50.815320 -32.914227 0.000000 0.000000 0.000000 11.610828 0.090984 -1.690212 -0.563878 -12.273210 28.087515 3.761835 -1.478292 -1.937803 -85.719250 -35.310326 -55.684364 -95.168714 -32.449068 -89.999975 0.000000 0.000000 0.000000 9.250563 -0.296992 -2.014287 0.194411 21.835427 -11.385886 3.836720 -3.743359 4.222730 -76.310248 6.035681 17.549794 135.916325 41.764950 -133.380412 0.000000 0.000000 0.000000 
-9.011950 33.881695 -3.185137 0.000000 0.000000 0.000000 -169.896448 -42.394585 -159.881778 -121.268998 -22.152187 10.610860 91.018582 -30.502081 -48.083316 38.325281 -20.893064 -45.848803 -18.938468 -2.263830 5.515731 0.000000 0.000000 0.000000 -171.704085 -37.515763 -162.699846 6.536682 39.115763 -16.744132 40.436547 16.514723 0.824286 -24.610452 14.508123 7.946278 -8.278731 1.874152 4.753939 0.000000 0.000000 0.000000 -169.870302 -42.211170 -160.514186 21.383171 5.434940 0.952547 8.350956 0.155034 -1.438797 0.472524 -3.195957 1.136162 0.000000 0.000000 0.000000 12.384479 0.226413 -2.435758 11.521304 39.762937 0.640452 6.041713 50.956240 -32.991214 0.000000 0.000000 0.000000 11.684429 -0.086395 -1.877955 -0.227518 -12.560367 31.115962 3.673457 -1.645862 -2.010901 -88.312495 -33.461554 -56.148861 -95.233492 -34.089843 -90.323685 0.000000 0.000000 0.000000 9.176147 -0.425194 -2.144915 0.832213 21.958425 -13.657914 4.076095 -3.835760 4.468053 -79.527123 3.104494 14.007884 137.840608 42.184754 -135.597587 0.000000 0.000000 0.000000 
-9.055665 33.736710 -3.099873 0.000000 0.000000 0.000000 -170.073759 -41.954014 -158.964675 -120.510888 -22.478970 11.493120 90.827897 -29.918045 -49.933071 34.978013 -18.028498 -46.453168 -19.610458 -2.219791 5.060210 0.000000 0.000000 0.000000 -171.593231 -38.207566 -161.621428 5.938172 39.635735 -18.451297 42.390251 16.482657 1.526501 -26.404461 13.531987 8.023900 -5.814641 2.143928 5.123346 0.000000 0.000000 0.000000 -169.522126 -42.497205 -159.087223 21.624246 5.205775 0.681380 8.107976 -0.133834 -1.585026 0.490399 -3.597403 1.201030 0.000000 0.000000 0.000000 12.393846 0.025441 -2.561346 12.524570 39.741879 -0.162010 5.552879 50.896644 -32.862735 0.000000 0.000000 0.000000 11.608843 -0.327649 -2.038007 0.110219 -12.920542 33.498605 3.191766 -1.845326 -1.968327 -89.634341 -32.665311 -56.071103 -95.383503 -35.768594 -90.840375 0.000000 0.000000 0.000000 9.003278 -0.590976 -2.195523 1.212476 21.951514 -14.954945 4.350639 -4.045039 4.587102 -82.169341 0.256431 10.748350 139.634748 42.541225 -137.717227 0.000000 0.000000 0.000000 
-9.059620 33.601845 -2.902525 0.000000 0.000000 0.000000 -170.746123 -42.026260 -158.630816 -120.873202 -24.233200 12.175753 92.262967 -31.358081 -49.951946 35.107558 -19.334341 -47.424421 -20.715837 -2.475108 5.280725 0.000000 0.000000 0.000000 -171.675698 -39.425276 -160.718162 4.642199 40.065091 -19.734288 44.156746 16.557886 1.938427 -27.605191 12.428443 8.590595 -3.894281 2.488363 5.397073 0.000000 0.000000 0.000000 -169.605509 -43.382957 -158.265510 21.770927 4.907163 0.298483 7.675875 -0.468263 -1.695109 0.685616 -4.053491 1.282880 0.000000 0.000000 0.000000 12.230990 -0.212262 -2.635651 13.117660 39.683891 -0.617069 5.166242 50.742742 -32.598160 0.000000 0.000000 0.000000 11.405744 -0.632346 -2.177603 0.412221 -13.238303 35.202614 2.462383 -2.015508 -1.764746 -90.236887 -32.674747 -55.806815 -95.513133 -37.284039 -91.370268 0.000000 0.000000 0.000000 8.741359 -0.802345 -2.180435 1.358656 21.766693 -15.445021 4.660788 -4.171564 4.523362 -84.278729 -2.202157 8.092119 141.396937 42.625220 -139.894350 0.000000 0.000000 0.000000 
